<?xml version="1.0" encoding="UTF-8" standalone="no" ?>
<!DOCTYPE svg PUBLIC "-//W3C//DTD SVG 1.1//EN" "http://www.w3.org/Graphics/SVG/1.1/DTD/svg11.dtd">
<svg xmlns="http://www.w3.org/2000/svg" xmlns:xlink="http://www.w3.org/1999/xlink" version="1.1" width="600" height="600" xml:space="preserve">
<desc>Created with Fabric.js 1.6.0-rc.1</desc>
<defs></defs>
<g style="stroke: none; stroke-width: 1; stroke-dasharray: none; stroke-linecap: butt; stroke-linejoin: miter; stroke-miterlimit: 10; fill: #fff; fill-rule: nonzero; opacity: 1;" transform="translate(20 35) scale(1.09 1.04)" >
  <path d="M 385.946 256 c 0 71.762 -58.176 129.935 -129.938 129.935 S 126.062 327.762 126.062 256 s 58.184 -129.951 129.946 -129.951 S 385.946 184.238 385.946 256 z" style="stroke: none; stroke-width: 1; stroke-dasharray: none; stroke-linecap: butt; stroke-linejoin: miter; stroke-miterlimit: 10; fill: #c6d8f3; fill-rule: nonzero; opacity: 1;" transform=" matrix(1 0 0 1 0 0) " stroke-linecap="round" />
  <path d="M 282.752 512 h -53.391 l -11.059 -54.945 c -10.184 -1.905 -20.283 -4.621 -30.175 -8.11 l -36.913 42.045 l -46.246 -26.65 l 17.935 -53.102 c -7.918 -6.792 -15.332 -14.205 -22.144 -22.149 L 47.7 406.996 l -26.621 -46.118 l 41.946 -37.038 c -3.479 -9.866 -6.19 -19.945 -8.102 -30.095 L 0.146 282.78 l -0.1 -53.545 l 54.876 -11.044 c 1.905 -10.14 4.616 -20.209 8.092 -30.062 l -41.935 -37.115 L 47.7 105.001 l 53.046 17.838 c 6.802 -7.921 14.216 -15.34 22.147 -22.149 l -17.928 -53.138 l 46.244 -26.601 l 36.946 42.017 c 9.887 -3.487 19.981 -6.203 30.152 -8.108 L 229.361 0 h 53.391 l 11.046 54.884 c 10.145 1.902 20.221 4.613 30.1 8.095 l 36.933 -42.028 l 46.254 26.601 l -17.92 53.092 c 7.964 6.82 15.406 14.246 22.216 22.177 l 53.02 -17.818 l 26.604 46.019 l -41.853 37.018 c 3.489 9.894 6.213 20.012 8.136 30.2 l 54.666 10.993 v 53.548 l -54.669 10.921 c -1.92 10.189 -4.644 20.311 -8.148 30.226 L 491 360.878 l -26.596 46.118 l -53.025 -17.882 c -6.828 7.941 -14.262 15.368 -22.221 22.172 l 17.928 53.051 l -46.167 26.657 l -36.984 -42.063 c -9.882 3.484 -19.968 6.2 -30.129 8.108 L 282.752 512 z M 245.478 492.314 h 21.153 l 10.568 -52.559 l 6.817 -1.029 c 13.276 -2.007 26.478 -5.553 39.253 -10.55 l 6.423 -2.511 l 35.359 40.21 l 18.22 -10.519 l -17.139 -50.721 l 5.394 -4.308 c 10.655 -8.504 20.385 -18.217 28.918 -28.856 l 4.303 -5.371 l 50.662 17.085 l 10.499 -18.194 l -40.026 -35.323 l 2.506 -6.415 c 5.005 -12.813 8.576 -26.056 10.601 -39.357 l 1.039 -6.817 l 52.237 -10.437 v -21.279 l -52.237 -10.506 l -1.039 -6.804 c -2.03 -13.317 -5.591 -26.55 -10.583 -39.332 l -2.504 -6.4 l 40 -35.379 l -10.491 -18.145 l -50.67 17.039 l -4.303 -5.366 c -8.509 -10.619 -18.235 -20.334 -28.91 -28.861 l -5.386 -4.308 l 17.124 -50.726 l -18.286 -10.514 l -35.313 40.192 l -6.426 -2.506 c -12.782 -4.992 -25.987 -8.535 -39.242 -10.547 l -6.812 -1.034 l -10.56 -52.465 h -21.148 l -10.57 52.449 l -6.815 1.029 c -13.284 2.007 -26.499 5.56 -39.276 10.552 l -6.426 2.511 l -35.328 -40.184 l -18.281 10.516 l 17.121 50.76 l -5.368 4.303 c -10.632 8.525 -20.339 18.235 -28.844 28.854 l -4.303 5.368 l -50.708 -17.057 l -10.501 18.15 l 40.079 35.471 l -2.504 6.4 c -4.974 12.744 -8.522 25.925 -10.532 39.181 l -1.032 6.805 l -52.426 10.547 l 0.038 21.281 l 52.388 10.493 l 1.034 6.82 c 2.01 13.261 5.563 26.458 10.547 39.219 l 2.506 6.41 l -40.097 35.402 l 10.506 18.199 l 50.701 -17.111 l 4.308 5.376 c 8.535 10.655 18.24 20.36 28.849 28.849 l 5.381 4.308 l -17.139 50.742 l 18.276 10.532 l 35.297 -40.207 l 6.431 2.519 c 12.774 4.997 25.994 8.553 39.296 10.555 l 6.822 1.027 L 245.478 492.314 z" style="stroke: none; stroke-width: 1; stroke-dasharray: none; stroke-linecap: butt; stroke-linejoin: miter; stroke-miterlimit: 10; fill: #315ea3; fill-rule: nonzero; opacity: 1;" transform=" matrix(1 0 0 1 0 0) " stroke-linecap="round" />
  <polygon points="210.87,302.34 164.53,256.01 210.87,209.66 224.79,223.58 192.37,256 224.79,288.41 " style="stroke: none; stroke-width: 1; stroke-dasharray: none; stroke-linecap: butt; stroke-linejoin: miter; stroke-miterlimit: 10; fill: #315ea3; fill-rule: nonzero; opacity: 1;" transform="  matrix(1 0 0 1 0 0) "/>
  <polygon points="301.15,302.34 287.22,288.41 319.64,256.01 287.22,223.59 301.15,209.67 347.48,256.01 " style="stroke: none; stroke-width: 1; stroke-dasharray: none; stroke-linecap: butt; stroke-linejoin: miter; stroke-miterlimit: 10; fill: #315ea3; fill-rule: nonzero; opacity: 1;" transform="  matrix(1 0 0 1 0 0) "/>
  <rect x="246.19" y="188.03" rx="0" ry="0" width="19.69" height="135.94" style="stroke: none; stroke-width: 1; stroke-dasharray: none; stroke-linecap: butt; stroke-linejoin: miter; stroke-miterlimit: 10; fill: #315ea3; fill-rule: nonzero; opacity: 1;" transform=" matrix(-0.9848 -0.1738 0.1738 -0.9848 463.6732 552.5956) "/>
  <rect x="246.17" y="88.65" rx="0" ry="0" width="19.69" height="19.69" style="stroke: none; stroke-width: 1; stroke-dasharray: none; stroke-linecap: butt; stroke-linejoin: miter; stroke-miterlimit: 10; fill: #315ea3; fill-rule: nonzero; opacity: 1;" transform=" matrix(1 0 0 1 0 0) "/>
  <rect x="246.17" y="403.66" rx="0" ry="0" width="19.69" height="19.69" style="stroke: none; stroke-width: 1; stroke-dasharray: none; stroke-linecap: butt; stroke-linejoin: miter; stroke-miterlimit: 10; fill: #315ea3; fill-rule: nonzero; opacity: 1;" transform=" matrix(1 0 0 1 0 0) "/>
  <rect x="88.66" y="246.17" rx="0" ry="0" width="19.69" height="19.69" style="stroke: none; stroke-width: 1; stroke-dasharray: none; stroke-linecap: butt; stroke-linejoin: miter; stroke-miterlimit: 10; fill: #315ea3; fill-rule: nonzero; opacity: 1;" transform=" matrix(1 0 0 1 0 0) "/>
  <rect x="403.66" y="246.17" rx="0" ry="0" width="19.69" height="19.69" style="stroke: none; stroke-width: 1; stroke-dasharray: none; stroke-linecap: butt; stroke-linejoin: miter; stroke-miterlimit: 10; fill: #315ea3; fill-rule: nonzero; opacity: 1;" transform=" matrix(1 0 0 1 0 0) "/>
</g>
</svg>
